Simulation
nRows=16
nColumns=15
endheader
time  TH_x TH_y TH_z SC_y  SC_z  SC_x  AC_y  AC_z  AC_x  GH_y  GH_z  GH_yy  EL_x  PS_y
1.5  0.000000  0.000000  0.000000  -29.423977737317436  5.466924653545743  10.044134298230162  75.97056032746757  17.062938297753067  2.2412053823902918  20.920026559165315  55.84535080120932  -41.56155616927479  39.10372054921689  120.000000
1.53  0.000000  0.000000  0.000000  -29.405877716452007  5.438066715762086  10.023038457776096  75.9012581317433  17.078210250663517  2.177382297341984  20.99944817612089  55.73215885344342  -41.65082524761365  39.16223200170846  120.000000
1.56  0.000000  0.000000  0.000000  -29.381369069784117  5.40440493082626  10.003813902318788  75.82428879324057  17.077445664151462  2.101994004924616  21.09638645059078  55.614170401284426  -41.74971446606523  39.21618684671186  120.000000
1.5899999999999999  0.000000  0.000000  0.000000  -29.350405718292542  5.364627786127626  9.983425065342992  75.74568454154462  17.05974056416216  2.0171737866088577  21.202859464046362  55.49054160890784  -41.849242607982134  39.26355614284861  120.000000
1.6199999999999999  0.000000  0.000000  0.000000  -29.312477697795796  5.3173107398137525  9.957971285109561  75.66970596520507  17.024912716225636  1.924436049400445  21.31253783150828  55.35798290754874  -41.93965826425215  39.302484919311176  120.000000
1.65  0.000000  0.000000  0.000000  -29.268623704642895  5.261400328175475  9.92357021620605  75.59833351482214  16.97331029568418  1.8242452719157678  21.421403857699527  55.21108224139748  -42.01125216528996  39.33133583633124  120.000000
1.68  0.000000  0.000000  0.000000  -29.2189806364509  5.195717248865562  9.876192255450333  75.53124877738334  16.905794110536927  1.716123341078222  21.5279329410786  55.042223720252736  -42.05487991828643  39.3487953907068  120.000000
1.71  0.000000  0.000000  0.000000  -29.164469215187953  5.119324678004257  9.812622883772795  75.46625411964433  16.823530044915337  1.5986171180403157  21.632626648912655  54.842373538234085  -42.062466407691495  39.35386751853806  120.000000
1.74  0.000000  0.000000  0.000000  -29.10429070292275  5.031044665809938  9.73012030590721  75.39972619302766  16.727939242770905  1.4696582185224725  21.737291992287368  54.60149208653817  -42.02701548641071  39.346077444518805  120.000000
1.77  0.000000  0.000000  0.000000  -29.037864768623663  4.929845754890642  9.627257973618864  75.32716898137028  16.620497737007994  1.3266149965215923  21.844103000254847  54.30933569801073  -41.94257433209824  39.3256206512296  120.000000
1.7999999999999998  0.000000  0.000000  0.000000  -28.962752644031813  4.8145107917098136  9.503191849847111  75.24360802480756  16.502487524647847  1.16668004153066  21.954809316881477  53.95607867034905  -41.80371896938685  39.29346464969393  120.000000
1.8299999999999998  0.000000  0.000000  0.000000  -28.87687760584273  4.68404134049313  9.358092910091953  75.14395544987751  16.37481763575903  0.9869699743833676  22.07000702337603  53.533004642393415  -41.60504841466583  39.25122579908808  120.000000
1.8599999999999999  0.000000  0.000000  0.000000  -28.7766504836101  4.537419724833006  9.1918690860698  75.02330060666952  16.237898706106545  0.7849644674300307  22.18864973994326  53.033193780886634  -41.340373078119754  39.20097650454273  120.000000
1.89  0.000000  0.000000  0.000000  -28.659242501969736  4.3740288367458495  9.004520962110979  74.87716025927178  16.09139750334788  0.5586530552242535  22.30767577412483  52.45210006203555  -41.00211065372838  39.14505288572314  120.000000
1.92  0.000000  0.000000  0.000000  -28.52068994735685  4.193345797281424  8.795105506653162  74.70172650238503  15.934126030396405  0.3068444860706972  22.421865575961686  51.787975642559616  -40.58077652452614  39.08587416885874  120.000000
1.95  0.000000  0.000000  0.000000  -28.358238463012867  3.995359060947257  8.562242330213554  74.49386514298833  15.763984604342514  0.02933702329917519  22.5239528206167  51.04208766261487  -40.06490385276525  39.02589886186331  120.000000
